<?xml version="1.0" encoding="UTF-8"?>
<svg id="Camada_2" data-name="Camada 2" xmlns="http://www.w3.org/2000/svg" viewBox="0 0 2228.88 805.81">
  <defs>
    <style>
      .cls-1 {
        fill: #fffdf8;
      }
    </style>
  </defs>
  <g id="Camada_1-2" data-name="Camada 1">
    <path class="cls-1" d="M709.68,385.89c-42.59-99.84-92.16-214.33-117.99-267.39-16.76-34.91-40.49-66.33-66.32-74.71l.7-9.07c8.38,0,46.08,1.4,74.7,1.4,19.55,0,53.76-.7,79.59-1.4l.7,8.38c-18.16,6.28-35.61,20.25-38.4,42.59.7,16.06,8.38,37.7,18.15,61.44,11.87,28.63,25.84,59.34,39.1,89.36,30.72,70.51,62.13,141.73,88.66,205.26h2.09l67.03-147.32c37.7-81.68,57.25-136.14,57.25-177.33,0-26.53-6.28-41.89-13.97-53.76-6.28-9.78-16.05-16.06-25.13-20.25l.7-8.38c18.85,0,59.34,1.4,80.28,1.4s86.12-.7,97.98-1.4l.7,8.38c-8.38,4.89-16.76,11.87-26.53,22.34-11.17,11.87-22.34,27.93-32.81,46.07-20.95,35.61-46.08,93.55-90.07,191.3l-68.42,150.11c-10.47,26.53-22.34,57.95-30.02,81.68l-38.64.7c-18.15-50.26-36.3-96.34-59.34-149.4Z"/>
    <path class="cls-1" d="M1238.89,439.65c-22.34,30.02-53.06,55.85-96.34,55.85-56.55,0-99.14-44.68-99.14-135.45v-13.26l192-4.89c2.09-1.4,3.49-3.49,3.49-6.28,0-2.09-.7-5.59-1.39-9.08-10.47-64.23-50.27-120.78-115.2-120.78-78.89,0-134.05,77.49-134.05,163.36,0,65.63,22.34,113.11,61.44,140.33,20.95,14.66,46.78,21.65,73.31,21.65,62.13,0,103.32-53.76,123.57-85.88l-7.68-5.58ZM1115.32,219.72c39.8,3.49,63.53,54.46,67.72,106.12-32.81,4.89-96.34,6.98-138.93,6.28,6.28-62.13,34.91-102.63,71.21-112.4Z"/>
    <path class="cls-1" d="M1326.86,493.4c10.47-19.55,13.96-45.38,13.96-103.33,0-63.53-2.79-87.97-5.58-101.93-4.89-25.13-16.76-31.41-28.63-31.41-4.89,0-9.07.7-11.87,1.39l-2.09-7.68c11.17-4.89,30.72-14.66,40.49-20.95,19.55-13.26,39.09-25.13,45.38-25.13,1.4,0,4.19.7,4.89,2.79,3.49,9.78,3.49,39.1,3.49,61.44v28.63c12.57-23.04,32.81-49.57,53.06-69.82,16.05-16.06,27.93-20.95,39.09-20.95,21.64,0,37.01,25.83,37.01,45.38,0,12.57-9.08,20.95-23.04,20.95-15.36,0-32.11-6.98-54.46-6.98-4.19,0-9.07.7-12.57,2.09-12.57,9.07-38.4,43.28-39.09,80.99v30.02c0,32.11.7,71.21,9.77,99.14,5.59,16.75,22.34,34.21,55.16,38.4l-.7,8.38c-22.34,0-62.13-2.09-85.18-2.09s-45.38,1.39-68.42,2.09l-.7-7.68c9.77-2.79,23.74-11.87,30.02-23.74Z"/>
    <path class="cls-1" d="M1581.68,495.5c11.87-18.16,15.36-40.49,15.36-113.8,0-63.53-2.79-79.59-5.58-93.55-4.89-23.03-13.97-31.41-28.63-31.41-4.89,0-9.77.7-11.87,1.39l-2.09-7.68c11.17-5.59,30.72-13.97,41.89-21.65,16.76-11.17,37.7-24.43,43.99-24.43,3.49,0,5.59,1.4,6.98,4.19,2.8,5.59,2.8,16.05,2.8,34.91s-1.4,56.55-1.4,128.47v16.05c0,31.42,1.4,76.8,13.26,99.14,7.68,14.66,18.85,23.74,34.91,30.02l-.7,7.68c-18.15-.7-50.97-2.09-70.51-2.09s-49.57,1.39-66.32,2.09l-.7-7.68c10.47-3.49,20.94-10.47,28.62-21.64Z"/>
    <path class="cls-1" d="M1570.74,124.79c0-22.49,15.67-42.26,38.85-42.26,17.04,0,28.62,12.95,28.62,27.95s-10.22,25.22-23.17,32.71c-10.9,6.13-22.49,11.59-32.03,18.4l-3.41-1.37c-5.45-10.22-8.86-23.17-8.86-35.44Z"/>
    <path class="cls-1" d="M1777.86,510.16c-8.38-13.27-11.17-35.61-11.17-64.93,0-25.83,1.39-76.8,1.39-114.5,0-23.03,0-62.83-1.39-87.27-16.76,0-36.3.7-50.97,2.09l-1.4-8.38c22.34-9.77,42.59-23.03,58.65-43.28,14.66-18.15,26.53-41.19,34.91-69.82l9.07,1.4c-1.39,22.34-2.79,51.66-2.79,81.68v6.99c36.3,0,72.61,0,105.42-.7,0,10.47-2.09,23.04-5.58,31.42-29.32-1.4-64.93-1.4-99.84-1.4v94.95c0,55.85.7,98.44,5.59,121.48,4.89,23.04,16.05,32.81,34.91,32.81s39.09-12.56,53.06-27.93l8.38,7.68c-11.87,14.66-27.93,30.02-47.48,42.59-14.66,9.78-34.91,16.06-51.66,16.06s-30.72-6.99-39.09-20.95Z"/>
    <path class="cls-1" d="M2221.2,439.65c-22.34,30.02-53.06,55.85-96.34,55.85-56.55,0-99.14-44.68-99.14-135.45v-13.26l192-4.89c2.09-1.4,3.49-3.49,3.49-6.28,0-2.09-.7-5.59-1.39-9.08-10.47-64.23-50.27-120.78-115.2-120.78-78.89,0-134.05,77.49-134.05,163.36,0,65.63,22.34,113.11,61.44,140.33,20.95,14.66,46.78,21.65,73.31,21.65,62.13,0,103.32-53.76,123.57-85.88l-7.68-5.58ZM2097.62,219.72c39.8,3.49,63.53,54.46,67.72,106.12-32.81,4.89-96.34,6.98-138.93,6.28,6.28-62.13,34.91-102.63,71.21-112.4Z"/>
    <rect class="cls-1" x="215.72" y="630.87" width="1880.15" height="13.6"/>
    <g>
      <path class="cls-1" d="M796.52,800.39c2.8-.15,4.71-.78,5.75-1.93,1.03-1.14,1.6-2.72,1.71-4.75.11-2.03.17-4.33.17-6.9v-47.74c0-1.47.03-2.88.11-4.25.07-1.37.15-2.6.23-3.7-1.33.08-2.66.15-3.98.23-1.32.07-2.65.15-3.98.21v-4.86c3.9-.07,7.92-.12,12.04-.16,4.13-.04,8.33-.05,12.6-.05,7.14,0,13.15.81,18.01,2.43,4.86,1.62,8.58,4.01,11.16,7.18,2.58,3.16,3.98,7.1,4.2,11.82.15,2.87-.27,5.87-1.27,9-1,3.13-2.83,6.08-5.52,8.84-2.69,2.76-6.47,4.99-11.33,6.68-4.86,1.7-11.09,2.55-18.67,2.55h-1.66c-.81,0-1.59-.04-2.32-.12v16.03c0,1.99-.01,3.7-.05,5.14-.04,1.43-.13,2.63-.27,3.59,1.18-.07,2.32-.15,3.42-.21,1.11-.08,2.23-.13,3.37-.17s2.26-.09,3.37-.16v4.97h-27.07v-3.65ZM813.75,770.34c1.4.15,2.6.24,3.59.28,1,.04,2.19.05,3.59.05,4.2,0,8.03-.82,11.49-2.48,3.46-1.66,6.22-4.04,8.29-7.13,2.06-3.09,3.09-6.77,3.09-11.05,0-3.47-.55-6.43-1.65-8.9-1.11-2.47-2.68-4.45-4.7-5.96s-4.43-2.62-7.24-3.32c-2.8-.69-5.9-1.05-9.28-1.05-2.58,0-4.36.56-5.36,1.66s-1.55,2.63-1.66,4.58c-.11,1.95-.17,4.26-.17,6.9v26.41Z"/>
      <path class="cls-1" d="M887.9,805.81c-5.09,0-9.67-1.2-13.76-3.59-4.09-2.4-7.32-5.79-9.67-10.17-2.36-4.38-3.54-9.56-3.54-15.52,0-5.15,1.16-9.99,3.48-14.47,2.32-4.49,5.58-8.13,9.78-10.89,4.2-2.76,9.06-4.14,14.59-4.14,3.09,0,5.98.5,8.67,1.5,2.69,1,5.07,2.5,7.13,4.53,2.06,2.02,3.68,4.57,4.86,7.62,1.18,3.05,1.77,6.65,1.77,10.77l-38.89.66c0,5.6.61,10.52,1.83,14.75s3.18,7.52,5.91,9.84c2.72,2.31,6.22,3.48,10.5,3.48,2.28,0,4.62-.41,7.02-1.22,2.39-.81,4.62-1.91,6.69-3.31,2.06-1.41,3.72-2.95,4.97-4.65l2.65,2.22c-1.99,3.09-4.38,5.55-7.18,7.4-2.8,1.85-5.67,3.17-8.62,3.98s-5.67,1.21-8.17,1.21ZM872.65,767.47h28.18c0-2.66-.39-5.22-1.16-7.69-.77-2.46-2.04-4.49-3.81-6.07s-4.09-2.38-6.96-2.38c-4.27,0-7.83,1.27-10.66,3.81-2.83,2.54-4.69,6.65-5.58,12.32Z"/>
      <path class="cls-1" d="M921.03,800.72c2.28,0,3.87-.57,4.75-1.71s1.39-2.72,1.55-4.74c.15-2.03.22-4.37.22-7.02v-25.19c0-1.18.02-2.35.05-3.53.04-1.18.17-2.39.39-3.65-1.33.08-2.64.13-3.92.17-1.29.03-2.6.09-3.92.16v-4.53h3.43c3.17,0,5.36-.32,6.57-.94s2.23-1.3,3.04-2.04h3.21c.15,1.18.25,2.64.33,4.37s.15,3.92.23,6.57c1.1-1.85,2.61-3.65,4.53-5.42,1.91-1.77,4.07-3.24,6.47-4.42,2.39-1.17,4.91-1.77,7.57-1.77,2.06,0,3.86.56,5.41,1.66,1.55,1.1,2.32,2.87,2.32,5.31,0,.58-.19,1.3-.56,2.15-.37.85-.96,1.58-1.77,2.2s-1.88.94-3.21.94c-1.62-.07-2.91-.72-3.86-1.94-.96-1.21-1.33-2.63-1.1-4.25-1.85-.07-3.74.41-5.7,1.43-1.95,1.04-3.77,2.46-5.46,4.26-1.7,1.81-3.21,3.92-4.53,6.35l.11,27.18c0,1.47-.02,2.78-.05,3.92-.04,1.14-.17,2.35-.39,3.6,1.18-.08,2.34-.13,3.49-.17,1.14-.03,2.3-.09,3.48-.16v4.53h-22.65v-3.32Z"/>
      <path class="cls-1" d="M968.88,800.72c2.28,0,3.87-.57,4.75-1.71s1.39-2.72,1.55-4.74c.15-2.03.22-4.37.22-7.02v-25.19c0-1.18.04-2.3.11-3.37.07-1.06.18-2.34.33-3.81-1.33.08-2.64.15-3.92.23-1.29.07-2.6.15-3.92.21v-4.63c3.24,0,5.75-.15,7.52-.44s3.11-.66,4.03-1.12c.92-.44,1.64-.92,2.16-1.43h3.2v44.64c0,1.47-.01,2.78-.05,3.92s-.17,2.35-.39,3.6c1.18-.08,2.34-.13,3.48-.17,1.14-.03,2.3-.09,3.48-.16v4.53h-22.54v-3.32ZM973.74,739.96l-3.09-2.55,9.27-14.91c1.11-1.62,2.18-2.56,3.21-2.82,1.03-.27,1.91-.24,2.65.05.74.29,1.18.52,1.33.66.29.23.62.7,1,1.43.37.74.46,1.65.28,2.71-.19,1.06-.94,2.3-2.27,3.7l-12.37,11.71Z"/>
      <path class="cls-1" d="M1026.89,805.81c-4.94,0-9.49-1.13-13.64-3.37-4.16-2.24-7.48-5.48-9.95-9.72-2.47-4.24-3.7-9.33-3.7-15.3,0-3.84.7-7.56,2.1-11.17,1.39-3.61,3.37-6.86,5.91-9.77,2.54-2.91,5.58-5.22,9.12-6.9,3.53-1.7,7.44-2.55,11.71-2.55s7.71.64,10.78,1.89c3.05,1.25,5.43,2.91,7.12,4.97,1.69,2.07,2.54,4.32,2.54,6.75,0,1.62-.44,3-1.33,4.14-.88,1.14-2.17,1.71-3.86,1.71-1.85.07-3.15-.5-3.92-1.71-.78-1.22-1.16-2.3-1.16-3.27,0-.73.11-1.49.33-2.26s.66-1.5,1.33-2.15c-.59-1.78-1.63-3.08-3.09-3.93-1.47-.85-3.01-1.39-4.59-1.66-1.59-.25-2.89-.39-3.92-.39-5.01,0-9.22,2.01-12.65,6.03-3.43,4.01-5.14,9.85-5.14,17.51,0,4.93.79,9.31,2.38,13.15,1.58,3.82,3.81,6.83,6.68,9,2.87,2.18,6.19,3.25,9.95,3.25,3.47,0,6.78-.92,9.95-2.76,3.17-1.83,5.64-4.08,7.4-6.73l2.87,2.2c-1.92,3.09-4.22,5.6-6.9,7.52-2.69,1.91-5.46,3.32-8.29,4.2-2.83.89-5.5,1.33-8.01,1.33Z"/>
      <path class="cls-1" d="M1058.7,800.72c2.28,0,3.87-.57,4.75-1.71s1.39-2.72,1.55-4.74c.15-2.03.22-4.37.22-7.02v-25.19c0-1.18.04-2.3.11-3.37.07-1.06.18-2.34.33-3.81-1.33.08-2.64.15-3.92.23-1.29.07-2.6.15-3.92.21v-4.63c3.24,0,5.75-.15,7.52-.44s3.11-.66,4.03-1.12c.92-.44,1.64-.92,2.16-1.43h3.2v44.64c0,1.47-.01,2.78-.05,3.92-.04,1.14-.17,2.35-.39,3.6,1.18-.08,2.34-.13,3.48-.17,1.14-.03,2.3-.09,3.48-.16v4.53h-22.54v-3.32ZM1069.31,736.75c-1.55,0-2.91-.62-4.09-1.87-1.18-1.25-1.77-2.8-1.77-4.63s.6-3.41,1.82-4.7c1.22-1.29,2.6-1.94,4.15-1.94,1.69,0,3.11.65,4.25,1.94s1.71,2.85,1.71,4.7-.6,3.39-1.82,4.63-2.64,1.87-4.26,1.87Z"/>
      <path class="cls-1" d="M1123.34,804.04c-.22-1.25-.37-2.35-.44-3.32-.07-.96-.19-1.95-.33-2.97-2.5,2.5-5.21,4.47-8.12,5.91-2.91,1.43-5.99,2.15-9.23,2.15-5.6,0-9.76-1.27-12.48-3.81-2.73-2.54-4.09-5.66-4.09-9.33,0-3.39,1.05-6.32,3.15-8.79,2.1-2.46,4.83-4.49,8.18-6.07,3.35-1.58,7-2.76,10.93-3.55,3.94-.77,7.75-1.12,11.44-1.05v-6.84c0-2.59-.23-5.02-.66-7.3-.44-2.28-1.4-4.16-2.87-5.63-1.47-1.47-3.83-2.24-7.07-2.32-2.14-.07-4.33.33-6.57,1.22-2.25.88-3.89,2.39-4.92,4.53.59.58.98,1.27,1.16,2.04s.28,1.49.28,2.15c0,.89-.37,1.9-1.11,3.04s-2.02,1.67-3.86,1.61c-1.55,0-2.73-.54-3.54-1.61-.81-1.06-1.21-2.34-1.21-3.81,0-2.51.94-4.75,2.82-6.75,1.88-1.99,4.47-3.57,7.79-4.75,3.31-1.17,7.07-1.77,11.27-1.77,6.19,0,10.76,1.65,13.7,4.93,2.94,3.28,4.38,8.45,4.31,15.52v8.23c0,2.76-.02,5.52-.05,8.29-.04,2.76-.06,5.54-.06,8.34,0,1.18-.03,2.36-.11,3.53-.08,1.18-.19,2.51-.33,3.98,1.32-.08,2.63-.15,3.92-.23,1.29-.07,2.6-.15,3.92-.21v4.63h-15.8ZM1122.35,776.97c-2.51.08-5.14.39-7.9.94-2.76.56-5.3,1.38-7.63,2.48-2.32,1.12-4.2,2.56-5.63,4.37-1.44,1.81-2.12,4-2.04,6.57.15,2.72,1.05,4.77,2.71,6.13,1.65,1.37,3.62,2.04,5.91,2.04,3.02,0,5.65-.57,7.9-1.71,2.24-1.14,4.47-2.75,6.69-4.81-.08-.81-.11-1.7-.11-2.66v-2.97c0-.37.02-1.55.05-3.55.04-1.99.06-4.26.06-6.85Z"/>
      <path class="cls-1" d="M1169.42,805.81c-3.68,0-6.96-.49-9.83-1.49-2.87-1-5.23-2.12-7.07-3.37l.44,3.86h-4.64l-.66-19h3.43c.15,3.03,1,5.72,2.54,8.13,1.55,2.39,3.54,4.25,5.97,5.58,2.43,1.33,5.05,1.99,7.84,1.99,1.92,0,3.8-.32,5.64-.94s3.39-1.58,4.64-2.87c1.25-1.29,1.88-2.93,1.88-4.93s-.61-3.77-1.83-5.14c-1.21-1.35-2.82-2.55-4.81-3.59-1.99-1.04-4.12-1.99-6.41-2.87-2.21-.89-4.42-1.81-6.63-2.76-2.21-.97-4.26-2.11-6.13-3.43-1.88-1.33-3.37-2.95-4.47-4.87-1.1-1.91-1.66-4.26-1.66-7.06,0-1.55.3-3.24.89-5.09.58-1.83,1.58-3.59,2.98-5.24,1.39-1.66,3.31-3.03,5.74-4.09,2.43-1.06,5.52-1.61,9.28-1.61,1.99,0,4.2.33,6.63,1,2.43.66,4.79,1.93,7.07,3.76l-.22-4.2h4.64v19.33h-3.54c-.15-2.58-.74-5.06-1.77-7.46-1.04-2.39-2.54-4.38-4.53-5.96-1.99-1.58-4.57-2.38-7.73-2.38-3.39,0-6.04.85-7.95,2.55-1.91,1.69-2.87,3.64-2.87,5.86s.72,4.18,2.16,5.68c1.43,1.51,3.29,2.82,5.58,3.93,2.28,1.1,4.71,2.16,7.3,3.2,2.8,1.18,5.52,2.47,8.17,3.86,2.66,1.41,4.83,3.15,6.52,5.24s2.54,4.81,2.54,8.13c0,3.68-.94,6.75-2.82,9.18-1.88,2.43-4.28,4.21-7.18,5.35-2.91,1.14-5.95,1.71-9.12,1.71Z"/>
      <path class="cls-1" d="M1233.61,805.81c-2.06,0-3.98-.32-5.75-.94-1.77-.62-3.2-1.53-4.31-2.7-1.1-1.18-1.65-2.59-1.65-4.21,0-1.47.39-2.78,1.16-3.92.78-1.14,1.97-1.75,3.59-1.82,1.85-.15,3.11.35,3.81,1.49.7,1.14,1.06,2.27,1.06,3.37,0,.29-.04.68-.11,1.16s-.19.9-.33,1.27c.44.73,1.14,1.23,2.1,1.49.96.27,1.69.36,2.21.28,2.21-.07,3.85-1.06,4.92-2.99,1.06-1.91,1.6-5.11,1.6-9.61v-57.56c-1.85.08-3.7.15-5.58.23-1.88.07-3.78.15-5.7.21v-4.86h29.39v3.65c-2.43,0-4.25.48-5.47,1.43-1.21.96-2.02,2.27-2.43,3.92-.4,1.66-.6,3.52-.6,5.59v35.8c0,10.38-1.4,17.77-4.2,22.15-2.8,4.38-7.36,6.57-13.7,6.57Z"/>
      <path class="cls-1" d="M1291.51,805.81c-3.98,0-7.31-.73-10-2.2-2.7-1.47-4.72-3.98-6.08-7.52s-2.04-8.33-2.04-14.37v-19.67c0-1.18.02-2.35.06-3.53.03-1.18.17-2.39.39-3.65-1.25.08-2.52.13-3.81.17-1.29.03-2.56.09-3.81.16v-4.53h3.43c3.17,0,5.46-.32,6.9-.94,1.43-.62,2.56-1.3,3.37-2.04h3.21v33.7c0,6.33.9,11.07,2.71,14.19,1.8,3.13,4.88,4.66,9.22,4.59,2.8-.08,5.47-.94,8.01-2.6s4.58-3.62,6.13-5.91v-28.39c0-1.78.04-3.31.11-4.59.07-1.29.22-2.55.44-3.81-1.33.08-2.66.13-3.98.17-1.33.03-2.66.09-3.98.16v-4.53h3.43c3.17,0,5.47-.32,6.9-.94,1.44-.62,2.56-1.3,3.37-2.04h3.21l-.11,41.77c0,1.17-.04,2.83-.11,4.97-.07,2.14-.18,3.94-.33,5.42,1.33-.08,2.66-.15,3.98-.23,1.32-.07,2.65-.15,3.98-.21v4.63h-15.8c-.22-1.25-.39-2.43-.5-3.53s-.21-2.14-.28-3.09c-2.28,2.28-5.05,4.25-8.29,5.91-3.24,1.66-6.48,2.48-9.72,2.48Z"/>
      <path class="cls-1" d="M1357.8,805.81c-4.49,0-8.54-1.13-12.16-3.37-3.61-2.24-6.47-5.47-8.56-9.67s-3.15-9.14-3.15-14.81c0-6.04,1.21-11.38,3.64-16.01,2.43-4.65,5.8-8.29,10.11-10.94s9.19-3.98,14.64-3.98c2.43,0,4.84.32,7.24.94,2.39.62,4.29,1.34,5.69,2.15v-15.14c0-1.17.02-2.3.05-3.36.04-1.08.13-2.34.28-3.82-1.33.08-2.64.16-3.92.23-1.29.08-2.6.15-3.92.23v-4.65c3.25,0,5.75-.15,7.52-.44,1.76-.29,3.11-.66,4.03-1.1.92-.45,1.63-.93,2.15-1.43h3.21v71.7c0,1.18-.04,2.36-.12,3.53-.07,1.18-.19,2.51-.33,3.98,1.33-.08,2.64-.15,3.93-.23,1.29-.07,2.59-.15,3.92-.21v4.63h-15.79c-.22-1.1-.39-2.11-.5-3.04-.11-.92-.21-1.82-.28-2.71-2.06,2.28-4.6,4.12-7.62,5.47-3.02,1.37-6.37,2.04-10.05,2.04ZM1361.78,800.39c2.43,0,4.88-.69,7.34-2.1,2.47-1.39,4.51-3.12,6.13-5.19-.07-.88-.11-1.82-.11-2.82v-3.25l.11-31.83c-1.77-1.33-3.7-2.3-5.8-2.92-2.1-.62-4.25-.94-6.46-.94-3.68,0-6.89,1.06-9.61,3.2-2.73,2.14-4.79,5.13-6.19,8.95-1.4,3.84-2.02,8.33-1.88,13.48.15,4.5.86,8.51,2.16,12.04,1.29,3.55,3.13,6.32,5.52,8.35,2.39,2.02,5.32,3.03,8.78,3.03Z"/>
      <path class="cls-1" d="M1400.22,800.72c2.28,0,3.86-.57,4.75-1.71.88-1.14,1.39-2.72,1.54-4.74.15-2.03.23-4.37.23-7.02v-25.19c0-1.18.04-2.3.11-3.37.08-1.06.19-2.34.33-3.81-1.33.08-2.63.15-3.92.23-1.29.07-2.6.15-3.93.21v-4.63c3.24,0,5.75-.15,7.52-.44s3.11-.66,4.04-1.12c.92-.44,1.63-.92,2.15-1.43h3.2v44.64c0,1.47-.01,2.78-.05,3.92s-.16,2.35-.39,3.6c1.18-.08,2.34-.13,3.48-.17,1.14-.03,2.31-.09,3.48-.16v4.53h-22.53v-3.32ZM1410.83,736.75c-1.55,0-2.92-.62-4.09-1.87-1.18-1.25-1.77-2.8-1.77-4.63s.6-3.41,1.82-4.7,2.6-1.94,4.14-1.94c1.7,0,3.11.65,4.25,1.94,1.14,1.29,1.71,2.85,1.71,4.7s-.6,3.39-1.82,4.63c-1.21,1.25-2.63,1.87-4.25,1.87Z"/>
      <path class="cls-1" d="M1458.22,805.81c-4.94,0-9.48-1.13-13.64-3.37-4.17-2.24-7.49-5.48-9.95-9.72-2.47-4.24-3.7-9.33-3.7-15.3,0-3.84.7-7.56,2.1-11.17,1.39-3.61,3.37-6.86,5.91-9.77,2.55-2.91,5.58-5.22,9.12-6.9,3.53-1.7,7.44-2.55,11.71-2.55s7.7.64,10.76,1.89c3.05,1.25,5.44,2.91,7.14,4.97,1.7,2.07,2.52,4.32,2.52,6.75,0,1.62-.42,3-1.3,4.14-.9,1.14-2.18,1.71-3.88,1.71-1.83.07-3.16-.5-3.93-1.71-.77-1.22-1.17-2.3-1.17-3.27,0-.73.13-1.49.35-2.26s.66-1.5,1.33-2.15c-.58-1.78-1.62-3.08-3.11-3.93-1.46-.85-3-1.39-4.57-1.66-1.59-.25-2.89-.39-3.93-.39-5.01,0-9.22,2.01-12.64,6.03-3.43,4.01-5.14,9.85-5.14,17.51,0,4.93.78,9.31,2.38,13.15,1.58,3.82,3.81,6.83,6.68,9,2.87,2.18,6.19,3.25,9.95,3.25,3.45,0,6.77-.92,9.93-2.76,3.16-1.83,5.63-4.08,7.41-6.73l2.87,2.2c-1.91,3.09-4.22,5.6-6.9,7.52s-5.44,3.32-8.29,4.2c-2.84.89-5.5,1.33-8.01,1.33Z"/>
      <path class="cls-1" d="M1490.04,800.72c2.28,0,3.86-.57,4.75-1.71.89-1.14,1.39-2.72,1.54-4.74.15-2.03.23-4.37.23-7.02v-25.19c0-1.18.04-2.3.11-3.37.08-1.06.19-2.34.33-3.81-1.31.08-2.63.15-3.92.23-1.29.07-2.6.15-3.92.21v-4.63c3.24,0,5.74-.15,7.5-.44,1.78-.29,3.12-.66,4.04-1.12.92-.44,1.63-.92,2.15-1.43h3.21v44.64c0,1.47-.03,2.78-.05,3.92-.04,1.14-.17,2.35-.4,3.6,1.18-.08,2.34-.13,3.49-.17,1.13-.03,2.3-.09,3.48-.16v4.53h-22.55v-3.32ZM1500.65,736.75c-1.55,0-2.91-.62-4.09-1.87-1.18-1.25-1.77-2.8-1.77-4.63s.61-3.41,1.82-4.7c1.22-1.29,2.6-1.94,4.14-1.94,1.7,0,3.12.65,4.26,1.94,1.14,1.29,1.71,2.85,1.71,4.7s-.61,3.39-1.83,4.63c-1.21,1.25-2.63,1.87-4.25,1.87Z"/>
      <path class="cls-1" d="M1554.68,804.04c-.23-1.25-.37-2.35-.45-3.32-.07-.96-.17-1.95-.33-2.97-2.5,2.5-5.21,4.47-8.11,5.91s-5.99,2.15-9.23,2.15c-5.6,0-9.76-1.27-12.48-3.81-2.74-2.54-4.09-5.66-4.09-9.33,0-3.39,1.05-6.32,3.15-8.79,2.1-2.46,4.82-4.49,8.18-6.07,3.35-1.58,7-2.76,10.94-3.55,3.93-.77,7.74-1.12,11.43-1.05v-6.84c0-2.59-.23-5.02-.66-7.3s-1.41-4.16-2.87-5.63c-1.47-1.47-3.84-2.24-7.08-2.32-2.14-.07-4.33.33-6.57,1.22-2.24.88-3.89,2.39-4.91,4.53.58.58.97,1.27,1.16,2.04s.28,1.49.28,2.15c0,.89-.37,1.9-1.1,3.04-.74,1.14-2.03,1.67-3.88,1.61-1.54,0-2.72-.54-3.53-1.61s-1.21-2.34-1.21-3.81c0-2.51.93-4.75,2.82-6.75,1.87-1.99,4.47-3.57,7.78-4.75,3.32-1.17,7.08-1.77,11.27-1.77,6.19,0,10.76,1.65,13.7,4.93,2.95,3.28,4.38,8.45,4.3,15.52v8.23c0,2.76-.01,5.52-.05,8.29-.04,2.76-.05,5.54-.05,8.34,0,1.18-.04,2.36-.11,3.53-.08,1.18-.19,2.51-.33,3.98,1.33-.08,2.63-.15,3.92-.23,1.29-.07,2.6-.15,3.93-.21v4.63h-15.8ZM1553.68,776.97c-2.51.08-5.14.39-7.9.94-2.76.56-5.31,1.38-7.62,2.48-2.32,1.12-4.2,2.56-5.64,4.37-1.43,1.81-2.11,4-2.04,6.57.15,2.72,1.05,4.77,2.71,6.13,1.66,1.37,3.62,2.04,5.91,2.04,3.03,0,5.66-.57,7.9-1.71,2.26-1.14,4.47-2.75,6.69-4.81-.08-.81-.11-1.7-.11-2.66v-2.97c0-.37.01-1.55.05-3.55.03-1.99.05-4.26.05-6.85Z"/>
      <path class="cls-1" d="M1578.1,800.72c2.28,0,3.86-.57,4.75-1.71s1.39-2.72,1.54-4.74c.15-2.03.23-4.37.23-7.02v-25.19c0-1.18.04-2.3.11-3.37.08-1.06.19-2.34.33-3.81-1.31.08-2.63.15-3.92.23-1.29.07-2.6.15-3.92.21v-4.63c3.24,0,5.74-.15,7.5-.44,1.78-.29,3.12-.66,4.04-1.12.92-.44,1.63-.92,2.15-1.43h3.21v44.64c0,1.47-.03,2.78-.05,3.92-.04,1.14-.17,2.35-.4,3.6,1.18-.08,2.34-.13,3.49-.17,1.13-.03,2.3-.09,3.48-.16v4.53h-22.55v-3.32ZM1588.71,736.75c-1.55,0-2.91-.62-4.09-1.87s-1.77-2.8-1.77-4.63.61-3.41,1.82-4.7c1.22-1.29,2.6-1.94,4.14-1.94,1.7,0,3.12.65,4.26,1.94,1.14,1.29,1.71,2.85,1.71,4.7s-.61,3.39-1.83,4.63c-1.21,1.25-2.63,1.87-4.25,1.87Z"/>
      <path class="cls-1" d="M1631.8,805.81c-3.69,0-6.96-.49-9.84-1.49-2.87-1-5.23-2.12-7.06-3.37l.44,3.86h-4.63l-.66-19h3.43c.15,3.03,1,5.72,2.54,8.13,1.55,2.39,3.53,4.25,5.96,5.58,2.43,1.33,5.05,1.99,7.85,1.99,1.91,0,3.8-.32,5.64-.94,1.83-.62,3.39-1.58,4.63-2.87s1.87-2.93,1.87-4.93-.6-3.77-1.82-5.14c-1.21-1.35-2.82-2.55-4.81-3.59s-4.13-1.99-6.4-2.87c-2.22-.89-4.42-1.81-6.64-2.76-2.2-.97-4.25-2.11-6.12-3.43-1.89-1.33-3.37-2.95-4.47-4.87-1.12-1.91-1.66-4.26-1.66-7.06,0-1.55.29-3.24.88-5.09.6-1.83,1.58-3.59,2.99-5.24,1.39-1.66,3.32-3.03,5.75-4.09,2.43-1.06,5.52-1.61,9.28-1.61,1.98,0,4.2.33,6.63,1s4.78,1.93,7.06,3.76l-.21-4.2h4.63v19.33h-3.53c-.15-2.58-.74-5.06-1.77-7.46-1.04-2.39-2.55-4.38-4.53-5.96-1.99-1.58-4.57-2.38-7.74-2.38-3.39,0-6.04.85-7.95,2.55-1.91,1.69-2.87,3.64-2.87,5.86s.72,4.18,2.15,5.68c1.43,1.51,3.29,2.82,5.58,3.93,2.28,1.1,4.71,2.16,7.29,3.2,2.8,1.18,5.52,2.47,8.18,3.86,2.66,1.41,4.82,3.15,6.52,5.24,1.7,2.1,2.54,4.81,2.54,8.13,0,3.68-.93,6.75-2.82,9.18-1.87,2.43-4.26,4.21-7.18,5.35-2.91,1.14-5.95,1.71-9.11,1.71Z"/>
    </g>
    <path class="cls-1" d="M355.41,148.29c.24,14.26-1.04,28.54-3.65,42.4-3.24,17.17-7.74,39.43-19.15,53.16-8.58,10.33-20.17,17.16-31.52,23.99-7.2,4.34-14.12,9.14-20.69,14.39-2.53,2.02-16.21,14.48-15.89,14.63-19.75,21.12-33.48,47.93-38.51,77.69-.59,3.52-5.47,3.98-6.76.65-15.75-40.74-55.3-69.63-101.6-69.63-49.19,0-90.77,32.63-104.27,77.43-1.18,3.91-6.76,3.8-7.85-.13-3.6-12.92-5.52-26.54-5.52-40.61,0-43.71,18.57-83.07,48.26-110.64,26.93-25.01,63.02-40.31,102.68-40.31,9.12,0,18.04.8,26.71,2.36-4.12-14.42-6.32-29.63-6.32-45.38,0-64.97,37.55-121.17,92.14-148.07,3.73-1.84,15.37,8.01,18.17,9.96,7.01,4.88,13.68,10.27,19.94,16.09,14.5,13.49,27,29.33,36.03,46.98,11.83,23.13,17.36,49.04,17.8,75.04Z"/>
    <path class="cls-1" d="M540.11,465.44c-.45,1.39-2.54,1.04-2.5-.42.03-1,.04-2.01.04-3.03,0-20.49-5.67-39.67-15.52-56.05h0c-19.04-31.67-53.73-52.84-93.37-52.84-60.14,0-108.89,48.76-108.89,108.89,0,37.08,18.51,69.81,46.82,89.48,10.5,7.3,22.34,12.8,35.09,16.05,1.36.35,1.17,2.35-.24,2.39-1.7.06-3.41.09-5.12.09-39.04,0-74.6-14.81-101.39-39.12h-.01c-22.15-20.11-38.31-46.7-45.45-76.78-2.68-11.25-4.09-22.98-4.09-35.04,0-43.33,18.26-82.4,47.51-109.91.55.14,1.1.26,1.66.4-.13-.54-.24-1.07-.38-1.6,26.87-24.74,62.75-39.83,102.16-39.83,15.11,0,29.7,2.22,43.47,6.35,11.57,3.47,22.56,8.3,32.77,14.29,44.7,26.21,74.71,74.75,74.71,130.3,0,16.18-2.55,31.77-7.26,46.39Z"/>
    <path class="cls-1" d="M426.1,174.5c17.78-11.02,39.41-16.53,59.99-12.8,3.48,22.58-12.13,44.68-32.09,55.8-11.77,6.56-24.9,10.09-38.12,12.27-7.01,1.16-30.92,7.43-34.85.11-4.18-7.76,11.42-24.11,15.71-29.28,8.39-10.12,18.17-19.16,29.37-26.1Z"/>
    <path class="cls-1" d="M1153,54.47c20.41-12.65,45.25-18.97,68.87-14.69,3.99,25.92-13.93,51.29-36.84,64.06-13.52,7.53-28.58,11.59-43.77,14.09-8.05,1.33-35.5,8.52-40.01.13-4.79-8.91,13.11-27.68,18.03-33.62,9.63-11.62,20.86-22,33.71-29.97Z"/>
    <path class="cls-1" d="M2124,56.75c20.41-12.65,45.25-18.97,68.87-14.69,3.99,25.92-13.93,51.29-36.84,64.06-13.52,7.53-28.58,11.59-43.77,14.09-8.05,1.33-35.5,8.52-40.01.13-4.79-8.91,13.11-27.68,18.03-33.62,9.63-11.62,20.86-22,33.71-29.97Z"/>
  </g>
</svg>