<?xml version="1.0" encoding="UTF-8"?>
<svg id="Camada_2" data-name="Camada 2" xmlns="http://www.w3.org/2000/svg" viewBox="0 0 554.37 557.41">
  <defs>
    <style>
      .cls-1 {
        fill: #fffdf8;
      }
    </style>
  </defs>
  <g id="Camada_1-2" data-name="Camada 1">
    <g>
      <path class="cls-1" d="M257.37,486.32c.49-4.2,6.98-1.54,10.09-1.45,44.13,1.29,108.56-2.09,149.86-17.46,39.87-14.84,91.21-41.72,79.11-93.01-5.05-21.4-31.78-39.9-50.14-50.36-57.25-32.62-153.44-50.23-191.78-105.97-7.81-11.36-16.86-23.89-20.35-37.4-20.27-78.55,51.84-136.34,119.76-153.9,6.71-1.74,14.68-2.23,21.19-4.31,1.61-.51,3.33-.85,4.49-2.25-19.26-6.98-39.06-12.02-59.05-16.68-42.44-7.24-84.43-2.72-125.77,8.1-3.31.87-25.56,7.03-26.31,8.19-.62.95-.46,1.28.41,1.89,1.57,1.44,11.33,2.2,14.39,2.86,14.43,3.11,30.65,7.16,44.31,12.69,4.42,1.79,17.46,7.51,20.73,10.02,1.23.94,2.39,2.42,2.31,4.06-2.78-.45-5.85-1.23-8.63-1.49-36.24-3.39-70.19-3.57-106.5-.02-8.5.83-17.23.8-25.68,2.82-14.63,13.73-29.87,27.25-43.32,42.18-18.68,20.71-33.79,45.62-46.89,70.19-.18,1.94,7.18,8.93,9.07,10.4,24.38,18.93,63.31,25.97,92.37,35.13,34.3,10.82,67.61,24.95,96.21,47.04,15.3,11.81,22.17,21.5,31.42,38.33,22.35,40.7,33.18,76.25,20.66,122.51-1.8,6.66-7.15,23.94-10.43,29.32-1.92,3.14-12.36,12.02-15.76,14.99-31.5,27.46-61.29,41.93-102.58,49.67-5.34,1-12.77.52-17.8,2.45-1.16.44-2.16.63-1.88,2.24,13.32,4.29,25.87,10.49,39.01,15.36,60.03,22.24,115.85,32.9,179.39,18.17,26.01-6.03,56.1-17.17,80.27-28.48,1.95-.91,8.32-3.77,9.55-4.7,1.04-.79,1.16-1.53.05-2.25-1.56-1.01-23.93-.18-28.14-.36-35.31-1.54-70.61-5.99-104.64-15.36-13.16-3.62-26.28-8.33-38.99-13.14ZM554.37,267.33c-.81-39.65-8.81-79.69-27.19-114.93-14.33-27.47-36.69-54.62-57.92-77.08-7.28-7.7-15.22-14.8-22.47-22.53l-2.92-.67c-23.42,4.94-46.39,11.42-67.02,23.81-8.18,4.91-16.06,10.55-21.11,18.64-23,36.81-20.04,74.56,21.64,94.38,50.09,19.6,109.61,30.08,154.73,59.77,9.15,6.02,12.36,11.5,19.67,17.83.95.82,1.27.98,2.59.78ZM142.32,337.39c-39.3-28.98-86.26-46.2-131.71-62.92-1.32-.48-8.15-4.1-8.63-4.06-2.45,2.07-1.97,5.7-1.89,8.59,2.05,77.58,16.5,127.09,66.8,186.69,3.77,4.47,5.63,8.91,11.84,7.38,7.48-1.85,20.39-7.25,27.88-10.36,26.18-10.87,58.79-28.32,64.31-58.69,6.47-35.55-1.53-46.66-28.61-66.63Z"/>
      <path class="cls-1" d="M257.37,486.32c12.71,4.81,25.83,9.52,38.99,13.14,34.03,9.37,69.33,13.82,104.64,15.36,4.21.18,26.58-.65,28.14.36,1.11.72.98,1.45-.05,2.25-1.23.94-7.59,3.79-9.55,4.7-24.18,11.31-54.27,22.45-80.27,28.48-63.53,14.73-119.35,4.07-179.39-18.17-13.15-4.87-25.7-11.08-39.01-15.36-.29-1.6.72-1.79,1.88-2.24,5.03-1.93,12.47-1.45,17.8-2.45,41.28-7.74,71.07-22.22,102.58-49.67,3.4-2.96,13.85-11.84,15.76-14.99,3.28-5.38,8.63-22.66,10.43-29.32,12.51-46.26,1.69-81.8-20.66-122.51-9.24-16.83-16.12-26.52-31.42-38.33-28.6-22.08-61.91-36.22-96.21-47.04-29.06-9.16-67.98-16.2-92.37-35.13-1.89-1.47-9.26-8.46-9.07-10.4,13.1-24.57,28.21-49.47,46.89-70.19,13.46-14.92,28.7-28.45,43.32-42.18,8.45-2.02,17.18-1.99,25.68-2.82,36.31-3.55,70.25-3.37,106.5.02,2.78.26,5.85,1.04,8.63,1.49.09-1.64-1.08-3.12-2.31-4.06-3.27-2.52-16.31-8.23-20.73-10.02-13.65-5.54-29.88-9.58-44.31-12.69-3.06-.66-12.83-1.42-14.39-2.86-.87-.6-1.03-.93-.41-1.89.75-1.16,23.01-7.32,26.31-8.19C236.12.8,278.11-3.72,320.55,3.53c19.99,4.66,39.79,9.7,59.05,16.68-1.16,1.39-2.87,1.73-4.49,2.25-6.51,2.07-14.48,2.57-21.19,4.31-67.92,17.56-140.04,75.35-119.76,153.9,3.49,13.51,12.53,26.04,20.35,37.4,38.34,55.75,134.52,73.35,191.78,105.97,18.36,10.46,45.09,28.96,50.14,50.36,12.1,51.29-39.24,78.17-79.11,93.01-41.3,15.37-105.73,18.75-149.86,17.46-3.1-.09-9.6-2.75-10.09,1.45Z"/>
      <path class="cls-1" d="M554.37,267.33c-1.32.21-1.65.04-2.59-.78-7.31-6.33-10.52-11.81-19.67-17.83-45.12-29.69-104.64-40.17-154.73-59.77-41.67-19.82-44.64-57.56-21.64-94.38,5.05-8.09,12.93-13.73,21.11-18.64,20.63-12.39,43.6-18.88,67.02-23.81l2.92.67c7.25,7.73,15.19,14.83,22.47,22.53,21.23,22.46,43.6,49.61,57.92,77.08,18.38,35.24,26.38,75.28,27.19,114.93Z"/>
      <path class="cls-1" d="M142.32,337.39c27.08,19.97,35.08,31.08,28.61,66.63-5.53,30.36-38.14,47.81-64.31,58.69-7.49,3.11-20.4,8.52-27.88,10.36-6.21,1.53-8.08-2.91-11.84-7.38C16.59,406.09,2.13,356.58.09,279c-.08-2.89-.55-6.52,1.89-8.59.48-.04,7.31,3.57,8.63,4.06,45.45,16.72,92.41,33.94,131.71,62.92Z"/>
    </g>
  </g>
</svg>